<svg width="48" height="48" viewBox="0 0 48 48" fill="none" xmlns="http://www.w3.org/2000/svg">
<rect y="-0.000732422" width="48" height="48" rx="8.51613" fill="#F1EAFC"/>
<g clip-path="url(#clip0_241_981)">
<path d="M18.777 27.9889H17.2532L14.0823 22.484L10.9115 27.9889H9.3877L13.4217 20.9866V15.1117H14.7429V20.9778L18.777 27.9889Z" fill="#BD9FF3"/>
<path d="M38.7448 27.9889H37.2122L34.0501 22.484L30.8793 27.9889H29.3467L33.3895 20.9866V15.1117H34.7107V20.9866L38.7448 27.9889Z" fill="#BD9FF3"/>
<path d="M8.17618 27.9883C7.88023 27.9883 7.66091 28.2604 7.712 28.552C7.97888 30.0811 9.31241 31.2428 10.9172 31.2428H17.1171C18.722 31.2428 20.0555 30.0811 20.3224 28.552C20.3734 28.2604 20.1541 27.9883 19.8582 27.9883H8.17618Z" fill="#9F73ED"/>
<path d="M39.8234 27.9883H28.1405C27.8446 27.9883 27.6253 28.2604 27.6764 28.552C27.9432 30.0802 29.2768 31.2419 30.8816 31.2419H37.0815C38.6863 31.2419 40.0198 30.0802 40.2867 28.552C40.3378 28.2604 40.1194 27.9883 39.8234 27.9883Z" fill="#9F73ED"/>
<path d="M38.3767 15.1156C38.9844 15.1156 39.4777 14.6223 39.4777 14.0146C39.4777 13.4068 38.9844 12.9136 38.3767 12.9136H25.7681C25.968 13.2342 26.0887 13.6094 26.0887 14.0146C26.0887 14.4197 25.968 14.795 25.7681 15.1156H38.3767Z" fill="#D3BEF7"/>
<path d="M22.2311 12.9136H9.62248C9.01473 12.9136 8.52148 13.4068 8.52148 14.0146C8.52148 14.6223 9.01473 15.1156 9.62248 15.1156H22.2311C22.0311 14.795 21.9105 14.4197 21.9105 14.0146C21.9105 13.6094 22.0311 13.2342 22.2311 12.9136Z" fill="#D3BEF7"/>
<path d="M25.1009 12.2451V9.53044C25.1009 8.92269 24.6077 8.42944 23.9999 8.42944C23.3922 8.42944 22.8989 8.92269 22.8989 9.53044V12.2451C23.2195 12.0451 23.5948 11.9244 23.9999 11.9244C24.4051 11.9244 24.7803 12.0451 25.1009 12.2451Z" fill="#D3BEF7"/>
<path d="M29.434 35.1592V36.6742C29.434 37.1762 29.02 37.5902 28.5179 37.5902H19.481C18.9789 37.5902 18.5649 37.1762 18.5649 36.6742V35.1592C18.5649 34.6571 18.9789 34.2432 19.481 34.2432H22.8985V15.7817C23.2155 15.9843 23.5943 16.0988 23.9995 16.0988C24.4046 16.0988 24.7834 15.9843 25.1005 15.7817V34.2432H28.5179C29.02 34.2432 29.434 34.6571 29.434 35.1592Z" fill="#D3BEF7"/>
<path d="M25.7685 12.9128C25.5994 12.6415 25.3722 12.4142 25.1009 12.2451C24.7803 12.0452 24.4051 11.9245 23.9999 11.9245C23.5947 11.9245 23.2195 12.0452 22.8989 12.2451C22.6276 12.4142 22.4004 12.6415 22.2313 12.9128C22.0313 13.2334 21.9106 13.6086 21.9106 14.0137C21.9106 14.4189 22.0313 14.7941 22.2313 15.1147C22.4004 15.386 22.6276 15.6133 22.8989 15.7824C23.2195 15.9823 23.5947 16.103 23.9999 16.103C24.4051 16.103 24.7803 15.9823 25.1009 15.7824C25.3722 15.6133 25.5994 15.386 25.7685 15.1147C25.9685 14.7941 26.0891 14.4189 26.0891 14.0137C26.0891 13.6086 25.9685 13.2334 25.7685 12.9128Z" fill="#9F73ED"/>
</g>
<defs>
<clipPath id="clip0_241_981">
<rect width="35.2319" height="35.2319" fill="white" transform="translate(6.38428 6.38232)"/>
</clipPath>
</defs>
</svg>
