<svg width="48" height="48" viewBox="0 0 48 48" fill="none" xmlns="http://www.w3.org/2000/svg">
<rect y="-0.000610352" width="48" height="48" rx="8.51613" fill="#FFECEF"/>
<g clip-path="url(#clip0_241_977)">
<path d="M18.9635 13.5902C17.0157 11.743 15.3444 9.7164 15.3444 9.7164V9.72366C15.2456 9.54057 15.0571 9.41277 14.835 9.4164C14.5169 9.42093 14.2631 9.68196 14.2676 10.0001L14.4507 23.4869C13.5815 22.6793 12.3298 22.2796 11.0038 22.6068C9.64422 22.9422 8.56927 24.0715 8.29827 25.4446C7.82423 27.8447 9.67413 29.9384 11.9808 29.9067C12.5383 29.8994 13.0658 29.768 13.538 29.5405C14.796 28.9333 15.658 27.6362 15.638 26.1498L15.4722 13.8748C19.2336 14.5446 19.5173 17.842 19.3306 19.8206C19.2925 20.2203 19.8445 20.3798 20.0222 20.02C21.0572 17.92 20.5787 15.122 18.9644 13.5911L18.9635 13.5902Z" fill="#FFA8B5"/>
<path d="M27.9729 21.602C26.0505 19.7285 24.4064 17.6792 24.4064 17.6792V17.6865C24.3103 17.5025 24.1236 17.3719 23.9015 17.3719C23.5834 17.3719 23.326 17.6294 23.326 17.9475V31.4361C22.4676 30.6167 21.2214 30.2007 19.8908 30.5098C18.5267 30.827 17.4364 31.9409 17.1472 33.3105C16.6406 35.7042 18.4624 37.8224 20.7691 37.8224C21.3265 37.8224 21.8558 37.6991 22.3308 37.477C23.597 36.887 24.4771 35.6018 24.4771 34.1144V21.8385C28.2285 22.5591 28.4678 25.8601 28.2548 27.836C28.2113 28.2348 28.7615 28.4025 28.9436 28.0445C30.0068 25.958 29.5663 23.1537 27.9729 21.602Z" fill="#FFA8B5"/>
<path d="M39.4226 18.7096C37.5002 16.8362 35.8561 14.7869 35.8561 14.7869V14.7941C35.76 14.6101 35.5733 14.4796 35.3512 14.4796C35.0331 14.4796 34.7757 14.737 34.7757 15.0552V28.5438C33.9173 27.7244 32.6711 27.3084 31.3405 27.6174C29.9764 27.9347 28.8861 29.0486 28.5969 30.4181C28.0903 32.8118 29.9121 34.93 32.2188 34.93C32.7762 34.93 33.3055 34.8068 33.7805 34.5847C35.0467 33.9947 35.9268 32.7094 35.9259 31.2221V18.9462C39.6773 19.6668 39.9166 22.9678 39.7036 24.9437C39.6601 25.3425 40.2103 25.5101 40.3924 25.1521C41.4556 23.0657 41.016 20.2613 39.4226 18.7096Z" fill="#FFA8B5"/>
</g>
<defs>
<clipPath id="clip0_241_977">
<rect width="36.2548" height="36.2548" fill="white" transform="translate(6.33984 5.8725)"/>
</clipPath>
</defs>
</svg>
