<svg width="48" height="48" viewBox="0 0 48 48" fill="none" xmlns="http://www.w3.org/2000/svg">
<rect y="-0.000610352" width="48" height="48" rx="8.51613" fill="#FFF7CC"/>
<g clip-path="url(#clip0_241_984)">
<path d="M36.6274 29.369C37.7001 27.383 36.862 24.891 34.9073 23.7627L32.6078 22.4348C32.9776 21.5519 33.1898 20.601 33.1898 19.6035C33.1898 18.7367 33.034 17.9022 32.7511 17.1178C33.4343 16.191 33.7656 14.9903 33.4791 13.6919C33.129 12.1061 31.8431 10.8274 30.2528 10.5006C28.6993 10.1809 27.2684 10.7244 26.3157 11.7273C25.5751 11.5563 24.8024 11.4569 24.001 11.4569C23.1996 11.4569 22.4268 11.5572 21.6863 11.7273C20.7336 10.7244 19.3027 10.1809 17.7491 10.5006C16.1588 10.8274 14.873 12.1061 14.5229 13.6919C14.2364 14.9894 14.5677 16.191 15.2509 17.1178C14.9679 17.9022 14.8121 18.7358 14.8121 19.6035C14.8121 20.601 15.0243 21.5519 15.3941 22.4348L13.1001 23.7592C11.1239 24.8999 10.2902 27.4313 11.4032 29.4218C11.7605 30.0612 12.6353 30.6334 13.3203 31.0076C13.6812 31.2046 13.7304 31.707 13.4027 31.955C12.2942 32.794 11.636 34.1434 11.7856 35.5573C12.0981 38.5229 15.0682 40.0774 17.5476 38.9913L21.2753 37.3571C23.059 36.5754 25.088 36.5754 26.8717 37.3571L30.4373 38.9196C32.4046 39.7819 34.7918 39.1139 35.8367 37.2371C36.8763 35.371 36.314 33.1217 34.7103 31.9272C34.3888 31.6882 34.4336 31.1948 34.7792 30.9915C35.4383 30.6029 36.2844 30.0101 36.631 29.3681L36.6274 29.369Z" fill="#FFE45C"/>
<path d="M27.7418 21.0619C27.7418 18.6012 26.0664 17.4363 23.9998 17.4363C21.9332 17.4363 20.2578 18.6012 20.2578 21.0619C20.2578 23.5225 21.9332 23.2324 23.9998 23.2324C26.0664 23.2324 27.7418 23.5225 27.7418 21.0619Z" fill="#FFF7CC"/>
<path d="M25.8151 20.0449C25.8151 19.0421 25.0021 18.9033 24.0001 18.9033C22.9981 18.9033 22.1851 19.0421 22.1851 20.0449C22.1851 21.0478 22.9981 21.86 24.0001 21.86C25.0021 21.86 25.8151 21.0469 25.8151 20.0449Z" fill="#F3D43D"/>
<path d="M21.4463 17.2357C21.9492 17.2357 22.3569 16.828 22.3569 16.3251C22.3569 15.8221 21.9492 15.4144 21.4463 15.4144C20.9434 15.4144 20.5356 15.8221 20.5356 16.3251C20.5356 16.828 20.9434 17.2357 21.4463 17.2357Z" fill="#FFF7CC"/>
<path d="M26.5542 17.2357C27.0571 17.2357 27.4649 16.828 27.4649 16.3251C27.4649 15.8221 27.0571 15.4144 26.5542 15.4144C26.0513 15.4144 25.6436 15.8221 25.6436 16.3251C25.6436 16.828 26.0513 17.2357 26.5542 17.2357Z" fill="#FFF7CC"/>
<path d="M24.8258 25.9233H23.1755C21.5549 25.9233 20.2412 27.2371 20.2412 28.8576V31.0004C20.2412 32.621 21.5549 33.9347 23.1755 33.9347H24.8258C26.4464 33.9347 27.7601 32.621 27.7601 31.0004V28.8576C27.7601 27.2371 26.4464 25.9233 24.8258 25.9233Z" fill="#FFF7CC"/>
</g>
<defs>
<clipPath id="clip0_241_984">
<rect width="35.817" height="35.817" fill="white" transform="translate(6.09131 6.96667)"/>
</clipPath>
</defs>
</svg>
