<svg width="48" height="48" viewBox="0 0 48 48" fill="none" xmlns="http://www.w3.org/2000/svg">
<rect y="-0.000610352" width="48" height="48" rx="8.51613" fill="#E9FBEF"/>
<g clip-path="url(#clip0_241_982)">
<path d="M25.3832 23.6444L20.7937 19.5997C20.2259 19.099 19.3737 19.099 18.8058 19.5997L9.47768 27.8207C9.15373 28.106 8.96875 29.4368 8.96875 29.8684V36.744C8.96875 38.4042 10.3151 39.7506 11.9754 39.7506H36.0256C37.6858 39.7506 39.0322 38.4042 39.0322 36.744V16.6961C39.0322 15.4022 37.5063 14.7129 36.5354 15.5688L27.372 23.6444C26.8042 24.1451 25.951 24.1451 25.3832 23.6444Z" fill="#98EBB3"/>
<path d="M36.5345 15.5682L27.3711 23.6438C26.8032 24.1444 25.952 24.1444 25.3832 23.6438L20.7937 19.5991C20.2259 19.0984 19.3746 19.0984 18.8058 19.5991L9.47768 27.8192C9.15373 28.1045 8.96875 28.5159 8.96875 28.9475V32.8707L18.8058 24.2006C19.3746 23.6999 20.2259 23.6999 20.7937 24.2006L25.3832 28.2453C25.952 28.7459 26.8032 28.7459 27.3711 28.2453L39.0313 17.9692V16.6965C39.0313 15.4025 37.5054 14.7132 36.5345 15.5682Z" fill="#68E290"/>
<path d="M26.4998 15.0964C26.1851 15.0964 25.886 14.9621 25.6752 14.7283L21.8017 10.3974C21.3958 9.94274 21.4345 9.24332 21.8891 8.83654C22.3437 8.43253 23.0423 8.46934 23.45 8.92397L26.4989 12.3337L29.5479 8.92397C29.9546 8.46934 30.6541 8.43069 31.1087 8.83654C31.5633 9.24332 31.602 9.94274 31.1961 10.3974L27.3226 14.7283C27.1118 14.963 26.8127 15.0964 26.498 15.0964H26.4998Z" fill="#68E290"/>
<path d="M26.4134 20.9964C25.8032 20.9964 25.3081 20.5013 25.3081 19.8911V14.8534C25.3081 14.2432 25.8032 13.7481 26.4134 13.7481C27.0235 13.7481 27.5187 14.2432 27.5187 14.8534V19.8911C27.5187 20.5013 27.0235 20.9964 26.4134 20.9964Z" fill="#68E290"/>
<path d="M29.7943 15.1639H23.0311C22.4209 15.1639 21.9258 14.6687 21.9258 14.0586C21.9258 13.4484 22.4209 12.9533 23.0311 12.9533H29.7943C30.4045 12.9533 30.8996 13.4484 30.8996 14.0586C30.8996 14.6687 30.4045 15.1639 29.7943 15.1639Z" fill="#68E290"/>
<path d="M29.7943 18.3614H23.0311C22.4209 18.3614 21.9258 17.8663 21.9258 17.2561C21.9258 16.6459 22.4209 16.1508 23.0311 16.1508H29.7943C30.4045 16.1508 30.8996 16.6459 30.8996 17.2561C30.8996 17.8663 30.4045 18.3614 29.7943 18.3614Z" fill="#68E290"/>
</g>
<defs>
<clipPath id="clip0_241_982">
<rect width="36.812" height="36.812" fill="white" transform="translate(5.59375 7.22504)"/>
</clipPath>
</defs>
</svg>
