<svg width="48" height="48" viewBox="0 0 48 48" fill="none" xmlns="http://www.w3.org/2000/svg">
<rect y="-0.000366211" width="48" height="48" rx="8.51613" fill="#FFECEF"/>
<g clip-path="url(#clip0_241_980)">
<path d="M37.8838 22.8277C37.8838 21.0068 36.7721 19.4422 35.1532 18.6316C35.7641 16.9601 35.3692 15.0432 33.9277 13.7108C32.5349 12.4233 30.5514 12.0432 28.787 12.5278C27.9401 10.9469 26.1943 9.84912 24.1558 9.84912C22.1855 9.84912 20.4931 10.8765 19.6159 12.3722C17.8074 11.8078 15.7334 12.1733 14.2918 13.5049C12.899 14.7923 12.4879 16.6256 13.0121 18.2569C11.3011 19.0396 10.1143 20.653 10.1143 22.5374C10.1143 24.3583 11.226 25.9229 12.8448 26.7335C12.234 28.405 12.6288 30.3219 14.0704 31.6543C15.4632 32.9418 17.4466 33.3219 19.211 32.8373C20.058 34.4182 21.8038 35.516 23.8423 35.516C25.8126 35.516 27.505 34.4886 28.3821 32.9929C30.1906 33.5573 32.2647 33.1918 33.7063 31.8602C35.099 30.5727 35.5101 28.7394 34.986 27.1082C36.697 26.3255 37.8838 24.7121 37.8838 22.8277Z" fill="#FFA8B5"/>
<path d="M13.3135 37.7203C14.5308 37.7203 15.5176 36.7335 15.5176 35.5162C15.5176 34.2989 14.5308 33.3121 13.3135 33.3121C12.0962 33.3121 11.1094 34.2989 11.1094 35.5162C11.1094 36.7335 12.0962 37.7203 13.3135 37.7203Z" fill="#FFA8B5"/>
<path d="M26.9959 28.1665L24.2909 26.6416C24.0998 26.5336 23.8681 26.5269 23.6709 26.6234L20.8809 27.9873C20.3848 28.2296 19.826 27.798 19.9354 27.2568L20.5497 24.2126C20.5929 23.9977 20.5278 23.7754 20.3756 23.6177L18.2162 21.3862C17.8321 20.9895 18.07 20.3248 18.6184 20.2614L21.7035 19.9049C21.9211 19.8797 22.1129 19.7491 22.2157 19.555L23.6713 16.8114C23.9302 16.3236 24.6356 16.3441 24.8655 16.8466L26.1574 19.6707C26.2489 19.8699 26.432 20.0119 26.648 20.0499L29.707 20.5865C30.2506 20.6817 30.4494 21.3597 30.0425 21.733L27.7561 23.8345C27.5949 23.9828 27.5164 24.2011 27.5475 24.4183L27.9824 27.4929C28.0594 28.0395 27.4766 28.4377 26.9959 28.1665Z" fill="#FFECEF"/>
</g>
<defs>
<clipPath id="clip0_241_980">
<rect width="30.9677" height="30.9677" fill="white" transform="translate(8.51562 8.51514)"/>
</clipPath>
</defs>
</svg>
