<svg width="48" height="48" viewBox="0 0 48 48" fill="none" xmlns="http://www.w3.org/2000/svg">
<rect y="-0.000793457" width="48" height="48" rx="8.51613" fill="#FFE5E1"/>
<g clip-path="url(#clip0_241_978)">
<path d="M27.5797 26.2277C29.506 28.154 32.6287 28.154 34.555 26.2277C36.4291 24.3536 36.4741 21.35 34.7021 19.4148C35.0197 19.2179 35.322 18.9863 35.5977 18.7105C37.5241 16.7842 37.5241 13.6616 35.5977 11.7353C33.6714 9.80895 30.5488 9.80895 28.6225 11.7353C28.3467 12.011 28.1152 12.3133 27.9182 12.6309C25.983 10.8589 22.9794 10.904 21.1053 12.778C19.179 14.7043 19.179 17.827 21.1053 19.7533C21.8811 20.5291 22.8507 20.9818 23.8573 21.1321L11.2815 33.7079C10.8482 34.1412 10.8482 34.8447 11.2815 35.278L11.9625 35.959C12.3959 36.3923 13.0993 36.3923 13.5327 35.959L16.804 32.6876L18.9901 34.8736L17.1682 36.6954C16.7349 37.1288 16.7349 37.8323 17.1682 38.2656L17.8114 38.9088C18.2448 39.3421 18.9482 39.3421 19.3816 38.9088L24.5238 33.7666C24.9571 33.3332 24.9571 32.6297 24.5238 32.1964L23.8806 31.5532C23.4473 31.1199 22.7438 31.1199 22.3105 31.5532L21.0225 32.8412L18.8365 30.6552L26.1824 23.3093C26.3046 24.3753 26.7621 25.4093 27.5797 26.2277ZM32.8747 21.1796C33.8017 22.1065 33.8017 23.6084 32.8747 24.5353C31.9477 25.4623 30.4459 25.4623 29.5189 24.5353C28.5919 23.6084 28.5919 22.1065 29.5189 21.1796C30.4459 20.2526 31.9477 20.2526 32.8747 21.1796ZM22.78 17.7972C21.853 16.8703 21.853 15.3684 22.78 14.4414C23.707 13.5145 25.2088 13.5145 26.1358 14.4414C27.0628 15.3684 27.0628 16.8703 26.1358 17.7972C25.2088 18.7242 23.707 18.7242 22.78 17.7972ZM30.4113 16.9225C29.4449 15.9561 29.4449 14.3884 30.4113 13.422C31.3777 12.4556 32.9454 12.4556 33.9118 13.422C34.8782 14.3884 34.8782 15.9561 33.9118 16.9225C32.9454 17.8889 31.3777 17.8889 30.4113 16.9225Z" fill="#FFA497"/>
</g>
<defs>
<clipPath id="clip0_241_978">
<rect width="30.9677" height="30.9677" fill="white" transform="translate(8.51562 8.51514)"/>
</clipPath>
</defs>
</svg>
