<svg width="48" height="48" viewBox="0 0 48 48" fill="none" xmlns="http://www.w3.org/2000/svg">
<rect y="-0.000793457" width="48" height="48" rx="8.51613" fill="#FFF7CC"/>
<g clip-path="url(#clip0_241_983)">
<path d="M18.0039 30.3836C19.011 33.899 20.807 36.4848 22.887 37.1811V30.3836H18.0039Z" fill="#FFE97D"/>
<path d="M17.4991 28.1583H22.8871V19.8417H17.4991C17.2702 21.1577 17.1411 22.5548 17.1411 24C17.1411 25.4451 17.2702 26.8422 17.4991 28.1583Z" fill="#FFE97D"/>
<path d="M29.9964 17.6152C28.9893 14.0998 27.1933 11.5139 25.1133 10.8176V17.6152H29.9964Z" fill="#FFE97D"/>
<path d="M25.1133 37.1811C27.1933 36.4848 28.9893 33.8999 29.9964 30.3836H25.1133V37.1811Z" fill="#FFE97D"/>
<path d="M30.5013 28.1583C30.7301 26.8422 30.8592 25.4451 30.8592 24C30.8592 22.5548 30.7301 21.1577 30.5013 19.8417H25.1133V28.1583H30.5013Z" fill="#FFE97D"/>
<path d="M22.887 10.8176C20.807 11.5139 19.011 14.0989 18.0039 17.6152H22.887V10.8176Z" fill="#FFE97D"/>
<path d="M24.0003 39.6094C15.3899 39.6094 8.39111 32.6106 8.39111 24.0002C8.39111 15.3897 15.3899 8.39093 24.0003 8.39093C21.7476 8.39093 19.7174 9.73548 18.1413 11.9883C17.0906 13.4931 16.2447 15.4164 15.6926 17.6158H9.79799C9.47744 18.3281 9.21031 19.0761 8.99661 19.8419H15.2385C15.0337 21.1597 14.918 22.5488 14.918 24.0002C14.918 25.4516 15.0337 26.8406 15.2385 28.1585H8.99661C9.21031 28.9242 9.47744 29.6722 9.79799 30.3845H15.6926C16.2447 32.5839 17.0906 34.5072 18.1413 36.0121C19.7174 38.2649 21.7476 39.6094 24.0003 39.6094Z" fill="#FFE97D"/>
<path d="M39.6092 24.0002C39.6092 32.6106 32.6105 39.6094 24 39.6094C26.2528 39.6094 28.283 38.2649 29.859 36.0121C30.9097 34.5072 31.7556 32.5839 32.3077 30.3845H38.2024C38.5229 29.6722 38.79 28.9242 39.0037 28.1585H32.7618C32.9666 26.8406 33.0824 25.4516 33.0824 24.0002C33.0824 22.5488 32.9666 21.1597 32.7618 19.8419H39.0037C38.79 19.0761 38.5229 18.3281 38.2024 17.6158H32.3077C31.7556 15.4164 30.9097 13.4931 29.859 11.9883C28.283 9.73548 26.2528 8.39093 24 8.39093C32.6105 8.39093 39.6092 15.3897 39.6092 24.0002Z" fill="#FFE97D"/>
<path d="M30.501 28.1583H32.7618C32.9675 26.8369 33.0859 25.4478 33.0859 24C33.0859 22.5521 32.9675 21.1631 32.7618 19.8417H30.501C30.7298 21.1577 30.8589 22.5548 30.8589 24C30.8589 25.4451 30.7298 26.8422 30.501 28.1583Z" fill="#F3D43D"/>
<path d="M15.2396 28.1583H17.5004C17.2716 26.8422 17.1425 25.4451 17.1425 24C17.1425 22.5548 17.2716 21.1577 17.5004 19.8417H15.2396C15.034 21.1631 14.9155 22.5521 14.9155 24C14.9155 25.4478 15.034 26.8369 15.2396 28.1583Z" fill="#F3D43D"/>
<path d="M29.8588 36.0151C30.9122 34.5058 31.7527 32.5852 32.3128 30.3858H29.9968C28.9897 33.9012 27.1937 36.487 25.1137 37.1833V38.4976H22.8876V37.1833C20.8076 36.487 19.0116 33.9021 18.0045 30.3858H15.6885C16.2486 32.5852 17.0891 34.5058 18.1425 36.0151C19.7141 38.2661 21.7479 39.6098 24.0006 39.6098C26.2534 39.6098 28.2872 38.2661 29.8588 36.0151Z" fill="#F3D43D"/>
<path d="M18.1425 11.9856C17.0891 13.4949 16.2486 15.4155 15.6885 17.6149H18.0045C19.0116 14.0995 20.8076 11.5137 22.8876 10.8174V9.50308H25.1137V10.8174C27.1937 11.5137 28.9897 14.0986 29.9968 17.6149H32.3128C31.7527 15.4155 30.9122 13.4949 29.8588 11.9856C28.2872 9.73459 26.2534 8.39093 24.0006 8.39093C21.7479 8.39093 19.7141 9.73459 18.1425 11.9856Z" fill="#F3D43D"/>
<path d="M22.8872 30.3858V37.1833V38.4967H25.1133V37.1833V30.3858H22.8872Z" fill="#F3D43D"/>
<path d="M25.1133 17.6167V10.8192V9.5058H22.8872V10.8192V17.6167H25.1133Z" fill="#F3D43D"/>
<path d="M25.1133 19.8417H22.8872V28.1583H25.1133V19.8417Z" fill="#F3D43D"/>
<path d="M29.9965 17.6165H9.79619C9.47385 18.3315 9.2085 19.075 8.99658 19.8425H39.005C38.793 19.075 38.5268 18.3315 38.2053 17.6165H29.9974H29.9965Z" fill="#F3D43D"/>
<path d="M30.5018 28.1583H8.99609C9.20802 28.9259 9.47425 29.6694 9.7957 30.3844H38.204C38.5263 29.6694 38.7917 28.9259 39.0036 28.1583H30.5H30.5018Z" fill="#F3D43D"/>
</g>
<defs>
<clipPath id="clip0_241_983">
<rect width="35.6172" height="35.6172" fill="white" transform="translate(6.19141 6.19141)"/>
</clipPath>
</defs>
</svg>
