<svg width="48" height="48" viewBox="0 0 48 48" fill="none" xmlns="http://www.w3.org/2000/svg">
<rect y="-0.000610352" width="48" height="48" rx="8.51613" fill="#F2F2F2"/>
<g clip-path="url(#clip0_241_979)">
<path d="M22.7382 35.4316C22.7382 35.4316 22.7373 35.4316 22.7364 35.4307C20.9779 34.4288 19.7925 32.5377 19.7925 30.3687C19.7925 27.839 21.4093 25.6917 23.6638 24.8897L20.7472 19.8376C16.7688 21.6797 14.0029 25.6963 14.0029 30.3687C14.0029 32.1835 14.4189 33.9002 15.161 35.4307L22.7382 35.4316Z" fill="#CECFD1"/>
<path d="M22.1106 9.62681L18.0698 11.96L19.6231 14.6502L23.664 12.317L22.1106 9.62681Z" fill="#CECFD1"/>
<path d="M22.7361 35.4315C22.7361 35.4315 22.737 35.4315 22.7379 35.4324H15.1608L11.4339 35.4315C10.6037 35.4315 9.93066 36.1046 9.93066 36.9348V38.508C9.93066 39.3382 10.6037 40.0113 11.4339 40.0113H36.5661C37.3963 40.0113 38.0694 39.3382 38.0694 38.508V36.9348C38.0694 36.1046 37.3963 35.4315 36.5661 35.4315H22.7361Z" fill="#CECFD1"/>
<path d="M25.2805 27.6928C25.6956 28.4122 26.6148 28.6584 27.3333 28.2433L31.5805 25.7908C32.299 25.3757 32.5461 24.4565 32.131 23.738L25.82 12.8074C25.4049 12.088 24.4857 11.8418 23.7672 12.2569L23.6637 12.3169L19.6226 14.6503L19.519 14.7103C18.8005 15.1254 18.5535 16.0446 18.9686 16.7631L20.7452 19.8395L23.6618 24.8916L25.2796 27.6938L25.2805 27.6928Z" fill="#CECFD1"/>
<path d="M27.7705 28.9969C28.0476 29.4765 28.6598 29.64 29.1394 29.3638L31.6518 27.9132C32.1314 27.6362 32.2949 27.024 32.0187 26.5444L31.5827 25.7887L27.3354 28.2412L27.7714 28.9969H27.7705Z" fill="#95989C"/>
<path d="M22.4988 9.39996C22.9784 9.12292 23.1419 8.51072 22.8658 8.03113L22.7386 7.81041C22.4616 7.33082 21.8494 7.16732 21.3698 7.44345L16.5539 10.2238C16.0743 10.5008 15.9108 11.113 16.1869 11.5926L16.3141 11.8134C16.5911 12.2929 17.2033 12.4564 17.6829 12.1803L18.0699 11.9569L22.111 9.62341L22.4988 9.39996Z" fill="#95989C"/>
</g>
<defs>
<clipPath id="clip0_241_979">
<rect width="36.3327" height="36.3327" fill="white" transform="translate(5.8335 5.49451)"/>
</clipPath>
</defs>
</svg>
