<svg width="52" height="52" viewBox="0 0 52 52" fill="none" xmlns="http://www.w3.org/2000/svg">
<rect x="3.05957" y="3.04443" width="31.4967" height="40.9957" rx="2.55056" fill="#EEEEEE"/>
<rect x="7.33008" y="9.96338" width="22.911" height="6.3309" fill="#CECFD1"/>
<rect x="7.33008" y="22.8361" width="22.911" height="1.16918" fill="#CECFD1"/>
<rect x="7.33008" y="27.0956" width="22.911" height="1.16918" fill="#CECFD1"/>
<rect x="7.33008" y="31.3592" width="22.911" height="1.16918" fill="#CECFD1"/>
<rect x="7.33008" y="35.6188" width="22.911" height="1.16918" fill="#CECFD1"/>
<path d="M35.3804 48.9536L24.6704 48.9536C23.686 48.9533 23.1712 47.7829 23.8364 47.0571L25.8589 44.8511C23.5297 42.4371 22.0963 39.153 22.0962 35.5337C22.0962 28.1207 28.106 22.1109 35.519 22.1108C42.932 22.111 48.9409 28.1207 48.9409 35.5337C48.9407 42.9464 42.9318 48.9554 35.519 48.9556C35.4728 48.9556 35.4265 48.9541 35.3804 48.9536Z" fill="#9F73ED"/>
</svg>
