<svg width="24" height="24" viewBox="0 0 24 24" fill="none" xmlns="http://www.w3.org/2000/svg">
<g clip-path="url(#clip0_138_326)">
<path d="M16.5602 20.6458H6.9895C4.72493 20.6458 2.89014 18.8028 2.89014 16.5382V10.414C2.89014 9.28993 3.58438 7.87665 4.47699 7.1824L8.93173 3.71117C10.2706 2.6698 12.4112 2.62021 13.7997 3.59546L18.9074 7.17414C19.8909 7.86012 20.6595 9.33126 20.6595 10.5297V16.5465C20.6595 18.8028 18.8247 20.6458 16.5602 20.6458ZM11.9378 15.4569C11.9792 15.9793 12.0658 15.8421 12.0658 16.586C12.0658 16.586 11.8277 15.4154 12.0002 15.1049L12.0042 16.5382C12.0042 16.5382 12.0002 16.1873 12.0002 14.6087C12.0002 13.8153 12.0002 13.8251 12.0002 14.7107L12.0002 15.1049C12.0005 15.2895 11.9908 15.8615 11.9378 15.4569Z" fill="#B6B8BB"/>
<path d="M12.0002 17.4441C11.6614 17.4441 11.3804 17.1631 11.3804 16.8242V14.3447C11.3804 14.0059 11.6614 13.7249 12.0002 13.7249C12.3391 13.7249 12.6201 14.0059 12.6201 14.3447V16.8242C12.6201 17.1631 12.3391 17.4441 12.0002 17.4441Z" fill="#585C61"/>
</g>
<defs>
<clipPath id="clip0_138_326">
<rect width="24" height="24" fill="white"/>
</clipPath>
</defs>
</svg>
