<svg width="24" height="24" viewBox="0 0 24 24" fill="none" xmlns="http://www.w3.org/2000/svg">
<path d="M18.3323 12C17.962 12 12.6461 15.0634 12.6461 14.6712V6.92091C12.6461 4.78787 12.6461 4.18478 12.6461 4.18478C12.6461 7.46203 12.6461 6.92091 12.6461 6.92091V14.6712C12.6461 15.0634 6.05751 12 5.68718 12C5.31686 12 5.00977 11.6748 5.00977 11.2826L5.0098 7.29348C5.0098 5.16043 5.0098 2.75 9.30012 2.75H14.7195C19.0098 2.75 19.0098 5.16043 19.0098 7.29348L19.0098 11.2826C19.0098 11.6748 18.7027 12 18.3323 12Z" fill="#B6B8BB"/>
<path d="M15.6891 22H8.31202C3.00977 22 3.00977 19.0826 3.00977 16.5V15.5435C3.00977 13.4104 3.00977 11 7.38989 11C8.48722 11 8.89296 11.2774 9.46468 11.7174C9.49235 11.7461 9.52923 11.7652 9.5569 11.8035L10.4975 12.8365C11.2905 13.707 12.729 13.707 13.5221 12.8365L14.4626 11.8035C14.4903 11.7748 14.518 11.7461 14.5548 11.7174C15.1266 11.2678 15.5323 11 16.6296 11C21.0098 11 21.0098 13.4104 21.0098 15.5435V16.5C20.9913 20.1539 19.2116 22 15.6891 22Z" fill="#585C61"/>
<path d="M13.3886 10.75H10.6309C10.2913 10.75 10.0098 10.5233 10.0098 10.25C10.0098 9.97667 10.2913 9.75 10.6309 9.75H13.3886C13.7282 9.75 14.0098 9.97667 14.0098 10.25C14.0098 10.5233 13.7365 10.75 13.3886 10.75Z" fill="#35383B"/>
<path d="M14.3175 7.75H9.70207C9.32361 7.75 9.00977 7.52333 9.00977 7.25C9.00977 6.97667 9.32361 6.75 9.70207 6.75H14.3175C14.6959 6.75 15.0098 6.97667 15.0098 7.25C15.0098 7.52333 14.7052 7.75 14.3175 7.75Z" fill="#35383B"/>
</svg>
