<svg width="24" height="24" viewBox="0 0 24 24" fill="none" xmlns="http://www.w3.org/2000/svg">
<g clip-path="url(#clip0_138_386)">
<path d="M14.273 21H9.77998C5.66966 21 3.92236 19.299 3.92236 15.3244L3.92236 11.7046C3.92236 11.3741 4.20526 11.9839 4.5464 11.9839C4.88754 11.9839 8.38256 11.7046 9.32837 11.1542L13.5596 12.2826L11.9608 16.3174C12.1069 18.1951 12.057 19.1833 12.057 20.2698C12.0651 19.0549 11.7178 15.2813 11.7178 11.9839L14.5718 11.1542C17.8241 12.8301 19.1572 12.1166 19.4983 12.1166C20.1223 11.7046 20.1223 11.3741 20.1223 11.7046V15.3244C20.1307 19.299 18.375 21 14.273 21Z" fill="#95989C"/>
<path d="M17.6775 12.9C16.0214 12.9 14.5449 11.4882 14.3736 9.74922L13.8025 3.71452C13.7862 3.53374 13.8433 3.35296 13.9575 3.21522C14.0718 3.07748 14.2349 3 14.4144 3H16.9025C19.3008 3 20.4185 4.05887 20.7529 6.6587L20.9813 9.05191C21.0792 10.0677 20.7856 11.0319 20.1574 11.7637C19.5293 12.4954 18.6482 12.9 17.6775 12.9Z" fill="#585C61"/>
<path d="M6.3222 12.9C5.35148 12.9 4.47048 12.4954 3.84236 11.7637C3.21424 11.0319 2.92058 10.0677 3.01847 9.05191L3.23872 6.68452C3.58133 4.05887 4.69889 3 7.09715 3H9.58515C9.75646 3 9.91961 3.07748 10.042 3.21522C10.1643 3.35296 10.2133 3.53374 10.197 3.71452L9.62594 9.74922C9.45464 11.4882 7.97815 12.9 6.3222 12.9Z" fill="#585C61"/>
<path d="M14.0997 21H9.94583C9.60522 21 9.32275 20.7175 9.32275 20.3769V18.3C9.32275 16.5554 10.2781 15.6 12.0228 15.6C13.7674 15.6 14.7228 16.5554 14.7228 18.3V20.3769C14.7228 20.7175 14.4403 21 14.0997 21Z" fill="#35383B"/>
<path d="M11.9861 12.9C10.9373 12.9 9.98383 12.5298 9.30688 11.8497C8.62993 11.1697 8.31529 10.283 8.42017 9.336L9.05898 3.58539C9.09712 3.25826 9.40223 3 9.77407 3H14.2267C14.5986 3 14.9037 3.24965 14.9418 3.58539L15.5806 9.336C15.6855 10.283 15.3709 11.1697 14.6939 11.8497C13.9883 12.5298 13.0349 12.9 11.9861 12.9Z" fill="#35383B"/>
</g>
<defs>
<clipPath id="clip0_138_386">
<rect width="24" height="24" fill="white"/>
</clipPath>
</defs>
</svg>
