<svg width="24" height="24" viewBox="0 0 24 24" fill="none" xmlns="http://www.w3.org/2000/svg">
<path d="M3.79556 19C3.2837 19 2.85667 18.8332 2.51444 18.4995C2.17222 18.1658 2.00074 17.7491 2 17.2493V7.75067C2 7.25161 2.17148 6.83525 2.51444 6.50158C2.85741 6.16792 3.28407 6.00072 3.79444 6H20.2056C20.7167 6 21.1433 6.16719 21.4856 6.50158C21.8278 6.83597 21.9993 7.25233 22 7.75067V17.2504C22 17.7487 21.8285 18.1651 21.4856 18.4995C21.1426 18.8339 20.7159 19.0007 20.2056 19H3.79556ZM3.79556 17.9167H20.2056C20.3759 17.9167 20.5326 17.8473 20.6756 17.7087C20.8185 17.57 20.8896 17.4169 20.8889 17.2493V7.75067C20.8889 7.58383 20.8178 7.43072 20.6756 7.29133C20.5333 7.15194 20.3767 7.08261 20.2056 7.08333H3.79444C3.62407 7.08333 3.46741 7.15267 3.32444 7.29133C3.18148 7.43 3.11037 7.58311 3.11111 7.75067V17.2504C3.11111 17.4165 3.18222 17.5693 3.32444 17.7087C3.46667 17.8481 3.62333 17.9174 3.79444 17.9167M8.66667 16.5842H15.3333C15.563 16.5842 15.763 16.5044 15.9333 16.3447C16.1037 16.1859 16.1889 15.9876 16.1889 15.75C16.1889 15.5261 16.1037 15.3311 15.9333 15.165C15.763 14.9989 15.563 14.9158 15.3333 14.9158H8.66667C8.43704 14.9158 8.23704 14.9956 8.06667 15.1552C7.8963 15.3141 7.81111 15.5124 7.81111 15.75C7.81111 15.9739 7.8963 16.1689 8.06667 16.335C8.23704 16.5011 8.43704 16.5842 8.66667 16.5842ZM5.33333 10.0842C5.56296 10.0842 5.76296 10.0011 5.93333 9.835C6.1037 9.66889 6.18889 9.47389 6.18889 9.25C6.18889 9.02611 6.1037 8.83111 5.93333 8.665C5.76296 8.49889 5.56296 8.41583 5.33333 8.41583C5.1037 8.41583 4.9037 8.49889 4.73333 8.665C4.56296 8.83111 4.47778 9.02611 4.47778 9.25C4.47778 9.47389 4.56296 9.66889 4.73333 9.835C4.9037 10.0011 5.1037 10.0842 5.33333 10.0842ZM8.66667 10.0842C8.8963 10.0842 9.0963 10.0011 9.26667 9.835C9.43704 9.66889 9.52222 9.47389 9.52222 9.25C9.52222 9.02611 9.43704 8.83111 9.26667 8.665C9.0963 8.49889 8.8963 8.41583 8.66667 8.41583C8.43704 8.41583 8.23704 8.49889 8.06667 8.665C7.8963 8.83111 7.81111 9.02611 7.81111 9.25C7.81111 9.47389 7.8963 9.66889 8.06667 9.835C8.23704 10.0011 8.43704 10.0842 8.66667 10.0842ZM12 10.0842C12.2296 10.0842 12.4296 10.0011 12.6 9.835C12.7704 9.66889 12.8556 9.47389 12.8556 9.25C12.8556 9.02611 12.7704 8.83111 12.6 8.665C12.4296 8.49889 12.2296 8.41583 12 8.41583C11.7704 8.41583 11.5704 8.49889 11.4 8.665C11.2296 8.83111 11.1444 9.02611 11.1444 9.25C11.1444 9.47389 11.2296 9.66889 11.4 9.835C11.5704 10.0011 11.7704 10.0842 12 10.0842ZM15.3333 10.0842C15.563 10.0842 15.763 10.0011 15.9333 9.835C16.1037 9.66889 16.1889 9.47389 16.1889 9.25C16.1889 9.02611 16.1037 8.83111 15.9333 8.665C15.763 8.49889 15.563 8.41583 15.3333 8.41583C15.1037 8.41583 14.9037 8.49889 14.7333 8.665C14.563 8.83111 14.4778 9.02611 14.4778 9.25C14.4778 9.47389 14.563 9.66889 14.7333 9.835C14.9037 10.0011 15.1037 10.0842 15.3333 10.0842ZM18.6667 10.0842C18.8963 10.0842 19.0963 10.0011 19.2667 9.835C19.437 9.66889 19.5222 9.47389 19.5222 9.25C19.5222 9.02611 19.437 8.83111 19.2667 8.665C19.0963 8.49889 18.8963 8.41583 18.6667 8.41583C18.437 8.41583 18.237 8.49889 18.0667 8.665C17.8963 8.83111 17.8111 9.02611 17.8111 9.25C17.8111 9.47389 17.8963 9.66889 18.0667 9.835C18.237 10.0011 18.437 10.0842 18.6667 10.0842ZM5.33333 13.3342C5.56296 13.3342 5.76296 13.2511 5.93333 13.085C6.1037 12.9189 6.18889 12.7239 6.18889 12.5C6.18889 12.2761 6.1037 12.0811 5.93333 11.915C5.76296 11.7489 5.56296 11.6658 5.33333 11.6658C5.1037 11.6658 4.9037 11.7489 4.73333 11.915C4.56296 12.0811 4.47778 12.2761 4.47778 12.5C4.47778 12.7239 4.56296 12.9189 4.73333 13.085C4.9037 13.2511 5.1037 13.3342 5.33333 13.3342ZM8.66667 13.3342C8.8963 13.3342 9.0963 13.2511 9.26667 13.085C9.43704 12.9189 9.52222 12.7239 9.52222 12.5C9.52222 12.2761 9.43704 12.0811 9.26667 11.915C9.0963 11.7489 8.8963 11.6658 8.66667 11.6658C8.43704 11.6658 8.23704 11.7489 8.06667 11.915C7.8963 12.0811 7.81111 12.2761 7.81111 12.5C7.81111 12.7239 7.8963 12.9189 8.06667 13.085C8.23704 13.2511 8.43704 13.3342 8.66667 13.3342ZM12 13.3342C12.2296 13.3342 12.4296 13.2511 12.6 13.085C12.7704 12.9189 12.8556 12.7239 12.8556 12.5C12.8556 12.2761 12.7704 12.0811 12.6 11.915C12.4296 11.7489 12.2296 11.6658 12 11.6658C11.7704 11.6658 11.5704 11.7489 11.4 11.915C11.2296 12.0811 11.1444 12.2761 11.1444 12.5C11.1444 12.7239 11.2296 12.9189 11.4 13.085C11.5704 13.2511 11.7704 13.3342 12 13.3342ZM15.3333 13.3342C15.563 13.3342 15.763 13.2511 15.9333 13.085C16.1037 12.9189 16.1889 12.7239 16.1889 12.5C16.1889 12.2761 16.1037 12.0811 15.9333 11.915C15.763 11.7489 15.563 11.6658 15.3333 11.6658C15.1037 11.6658 14.9037 11.7489 14.7333 11.915C14.563 12.0811 14.4778 12.2761 14.4778 12.5C14.4778 12.7239 14.563 12.9189 14.7333 13.085C14.9037 13.2511 15.1037 13.3342 15.3333 13.3342ZM18.6667 13.3342C18.8963 13.3342 19.0963 13.2511 19.2667 13.085C19.437 12.9189 19.5222 12.7239 19.5222 12.5C19.5222 12.2761 19.437 12.0811 19.2667 11.915C19.0963 11.7489 18.8963 11.6658 18.6667 11.6658C18.437 11.6658 18.237 11.7489 18.0667 11.915C17.8963 12.0811 17.8111 12.2761 17.8111 12.5C17.8111 12.7239 17.8963 12.9189 18.0667 13.085C18.237 13.2511 18.437 13.3342 18.6667 13.3342Z" fill="#35383B"/>
</svg>
