<svg width="24" height="24" viewBox="0 0 24 24" fill="none" xmlns="http://www.w3.org/2000/svg">
<path fill-rule="evenodd" clip-rule="evenodd" d="M17.5169 15.9802C18.8678 14.2386 19.5045 12.0477 19.2974 9.85335C19.0903 7.65898 18.055 5.62593 16.4021 4.16779C14.7492 2.70966 12.603 1.93598 10.3999 2.00415C8.19683 2.07232 6.10248 2.97723 4.54292 4.53477C2.98201 6.09339 2.07415 8.18855 2.00434 10.3933C1.93454 12.598 2.70806 14.7464 4.16725 16.4007C5.62645 18.0549 7.66151 19.0905 9.85773 19.2964C12.0539 19.5023 14.246 18.863 15.9873 17.5088L16.0338 17.5575L20.6293 22.1541C20.73 22.2548 20.8495 22.3346 20.981 22.3891C21.1125 22.4435 21.2535 22.4716 21.3958 22.4716C21.5381 22.4716 21.6791 22.4435 21.8106 22.3891C21.9421 22.3346 22.0616 22.2548 22.1623 22.1541C22.2629 22.0534 22.3427 21.934 22.3972 21.8024C22.4517 21.6709 22.4797 21.53 22.4797 21.3876C22.4797 21.2453 22.4517 21.1043 22.3972 20.9728C22.3427 20.8413 22.2629 20.7218 22.1623 20.6212L17.5657 16.0257L17.5169 15.9802ZM15.2679 6.06768C15.8796 6.66945 16.366 7.38637 16.6992 8.17708C17.0324 8.96779 17.2058 9.81665 17.2093 10.6747C17.2127 11.5327 17.0463 12.383 16.7196 13.1764C16.3928 13.9698 15.9122 14.6906 15.3055 15.2973C14.6988 15.9041 13.9779 16.3847 13.1845 16.7114C12.3911 17.0382 11.5409 17.2046 10.6828 17.2011C9.8248 17.1976 8.97595 17.0243 8.18523 16.6911C7.39452 16.3579 6.67761 15.8714 6.07584 15.2598C4.87325 14.0374 4.20238 12.3894 4.20936 10.6747C4.21635 8.95997 4.90061 7.31746 6.11312 6.10496C7.32562 4.89246 8.96812 4.20819 10.6828 4.20121C12.3976 4.19423 14.0456 4.86509 15.2679 6.06768Z" fill="#35383B"/>
</svg>
