<svg width="24" height="24" viewBox="0 0 24 24" fill="none" xmlns="http://www.w3.org/2000/svg">
<path d="M12.3236 12C12.2947 12 12.2754 12 12.2465 12C12.1983 11.9904 12.1309 11.9904 12.0731 12C9.27926 11.9132 7.16943 9.71456 7.16943 7.00482C7.16943 4.24687 9.41413 2 12.1694 2C14.9247 2 17.1694 4.24687 17.1694 7.00482C17.1598 9.71456 15.0403 11.9132 12.3525 12C12.3428 12 12.3332 12 12.3236 12Z" fill="#95989C"/>
<path d="M12.1694 22C10.357 22 8.53535 21.555 7.15754 20.665C5.87221 19.8462 5.16943 18.7248 5.16943 17.5056C5.16943 16.2863 5.87221 15.156 7.15754 14.3283C9.93165 12.5572 14.4257 12.5572 17.1813 14.3283C18.4574 15.1471 19.1694 16.2685 19.1694 17.4878C19.1694 18.707 18.4667 19.8373 17.1813 20.665C15.7943 21.555 13.9819 22 12.1694 22Z" fill="#585C61"/>
</svg>
