<svg width="49" height="32" viewBox="0 0 49 32" fill="none" xmlns="http://www.w3.org/2000/svg">
<path d="M43.7986 24.0182V22.2703C43.7986 22.1954 43.7487 22.1455 43.6738 22.1455H30.3399C30.24 22.1455 30.2151 22.1954 30.2151 22.2703V24.0182C30.2151 24.0931 30.24 24.1181 30.3399 24.1181H43.6738C43.7487 24.1181 43.7986 24.0931 43.7986 24.0182ZM46.795 25.1169C46.795 25.6662 46.5953 26.1406 46.1957 26.5402C45.7962 26.9397 45.3468 27.1145 44.7974 27.1145H29.2163C28.6669 27.1145 28.1925 26.9397 27.793 26.5402C27.3935 26.1406 27.2187 25.6662 27.2187 25.1169V21.1467C27.2187 20.5973 27.3935 20.1479 27.793 19.7484C28.1925 19.3489 28.6669 19.1491 29.2163 19.1491H44.7974C45.3468 19.1491 45.7962 19.3489 46.1957 19.7484C46.5953 20.1479 46.795 20.5973 46.795 21.1467V25.1169ZM31.089 7.53813C30.7894 7.53813 30.5147 7.68795 30.29 7.96261C30.0652 8.26225 29.9654 8.56189 29.9654 8.8865C29.9654 9.21111 30.0652 9.51074 30.29 9.81038C30.5147 10.11 30.7894 10.2349 31.089 10.2349H42.8248C43.2243 10.2349 43.5739 10.3847 43.8735 10.6843C44.1732 10.984 44.323 11.3335 44.323 11.7331C44.323 12.1326 44.1732 12.4822 43.8735 12.7818C43.5739 13.0814 43.2243 13.2312 42.8248 13.2312H31.089C29.9654 13.2312 28.9915 12.8068 28.1925 11.9328C27.3685 11.0589 26.969 10.0351 26.969 8.8865C26.969 7.73789 27.3685 6.71412 28.1925 5.84018C28.9915 4.99121 29.9654 4.54175 31.089 4.54175H42.8248C43.9485 4.54175 44.9223 4.96624 45.7213 5.76527C46.5203 6.5643 46.9448 7.53813 46.9448 8.66177C46.9448 9.08626 46.795 9.43583 46.4954 9.73547C46.1957 10.0351 45.8462 10.16 45.4466 10.16C45.0471 10.16 44.6975 10.0351 44.3979 9.73547C44.0983 9.43583 43.9485 9.08626 43.9485 8.66177C43.9485 8.36213 43.8236 8.08746 43.6238 7.86273C43.3991 7.66298 43.1245 7.53813 42.8248 7.53813H31.089ZM25.6206 17.551V14.5546H48.3681V17.551H25.6206Z" fill="#7D33FE"/>
<path d="M17.8744 26.1156V4.54165H20.8708V26.1156H17.8744Z" fill="#7D33FE"/>
<path d="M2.04749 24.6174C3.14616 25.7161 4.49453 26.2655 6.06763 26.2655C6.46715 26.2655 6.8417 26.1406 7.14133 25.841C7.44097 25.5413 7.59079 25.1917 7.59079 24.7673C7.59079 24.3677 7.44097 24.0182 7.14133 23.7185C6.8417 23.4189 6.46715 23.2691 6.06763 23.2691C5.31854 23.2691 4.69429 23.0194 4.16992 22.495C3.64556 21.9706 3.39586 21.3214 3.39586 20.5723V10.6593C3.39586 9.78537 3.6955 9.03627 4.31974 8.41203C4.91902 7.81275 5.66811 7.48815 6.56703 7.48815C7.44097 7.48815 8.19007 7.81275 8.81431 8.41203C9.43856 9.03627 9.76316 9.78537 9.76316 10.6593V20.5723C9.76316 21.2715 9.51347 21.8708 9.06401 22.3702C8.81431 22.6698 8.68946 22.9944 8.68946 23.369C8.68946 23.7934 8.81431 24.143 9.11395 24.4427C9.41359 24.7423 9.76316 24.8671 10.1877 24.8671C10.6371 24.8671 11.0117 24.7173 11.3113 24.3677C12.2601 23.319 12.7595 22.0456 12.7595 20.5723V10.6593C12.7595 8.96137 12.1353 7.51311 10.9367 6.28959C9.7382 5.09104 8.26498 4.4668 6.56703 4.4668C4.84411 4.4668 3.39586 5.09104 2.19731 6.28959C0.973787 7.48815 0.374512 8.96137 0.374512 10.6593V20.5723C0.374512 22.1704 0.923848 23.5188 2.04749 24.6174Z" fill="#7D33FE"/>
</svg>
