<svg width="24" height="24" viewBox="0 0 24 24" fill="none" xmlns="http://www.w3.org/2000/svg">
<path d="M3.725 12.4884L11.075 19.8384C11.325 20.0884 11.446 20.38 11.438 20.7134C11.43 21.0467 11.3007 21.3384 11.05 21.5884C10.7993 21.8384 10.5077 21.9634 10.175 21.9634C9.84233 21.9634 9.55067 21.8384 9.3 21.5884L1.6 13.9134C1.4 13.7134 1.25 13.4884 1.15 13.2384C1.05 12.9884 1 12.7384 1 12.4884C1 12.2384 1.05 11.9884 1.15 11.7384C1.25 11.4884 1.4 11.2634 1.6 11.0634L9.3 3.36337C9.55 3.11337 9.846 2.99237 10.188 3.00037C10.53 3.00837 10.8257 3.13771 11.075 3.38837C11.3243 3.63904 11.4493 3.93071 11.45 4.26337C11.4507 4.59604 11.3257 4.88771 11.075 5.13837L3.725 12.4884Z" fill="black"/>
</svg>
