<svg width="20" height="20" viewBox="0 0 20 20" fill="none" xmlns="http://www.w3.org/2000/svg">
<path d="M12.09 5.56134C12.4339 5.21736 12.8958 5.01705 13.3819 5.00104C13.8681 4.98503 14.3421 5.15451 14.7079 5.47512L14.7998 5.56134L15.2514 6.01287C15.5952 6.35674 15.7954 6.81846 15.8114 7.30445C15.8274 7.79044 15.658 8.26433 15.3376 8.63008L15.2514 8.72205L8.09077 15.8833C7.98953 15.9845 7.86688 16.0618 7.73185 16.1094L7.62838 16.1394L4.78381 16.7959C4.68414 16.8191 4.58036 16.818 4.48121 16.7927C4.38206 16.7674 4.29044 16.7186 4.21407 16.6505C4.1377 16.5824 4.07881 16.497 4.04237 16.4013C4.00592 16.3057 3.99299 16.2027 4.00465 16.1011L4.01742 16.0289L4.67332 13.1837C4.70573 13.0441 4.76902 12.9136 4.85853 12.8018L4.92942 12.7219L12.09 5.56134ZM11.6385 7.81899L5.89699 13.5605L5.4908 15.3219L7.25222 14.9151L12.9937 9.17358L11.6385 7.81899ZM13.8968 6.4644C13.7868 6.35444 13.6405 6.28838 13.4853 6.27862C13.3301 6.26886 13.1766 6.31607 13.0538 6.41139L12.9937 6.4644L12.5416 6.91593L13.8968 8.27052L14.3483 7.81899C14.4583 7.70902 14.5243 7.5627 14.5341 7.40749C14.5439 7.25228 14.4966 7.09884 14.4013 6.97596L14.3483 6.91593L13.8968 6.4644Z" fill="#4D5967"/>
</svg>
