<svg width="24" height="24" viewBox="0 0 24 24" fill="none" xmlns="http://www.w3.org/2000/svg">
<path d="M3.5 11.4999L17.5205 11.4999L12.5566 6.7206C12.1589 6.33762 12.1465 5.70438 12.5293 5.30654C12.9123 4.90883 13.5455 4.89644 13.9434 5.27919L20.6934 11.7792C20.8891 11.9677 21 12.2281 21 12.4999C21 12.7717 20.8891 13.0321 20.6934 13.2206L13.9434 19.7206C13.5455 20.1034 12.9123 20.091 12.5293 19.6933C12.1465 19.2954 12.1589 18.6622 12.5566 18.2792L17.5205 13.4999L3.5 13.4999C2.94772 13.4999 2.5 13.0522 2.5 12.4999C2.5 11.9476 2.94772 11.4999 3.5 11.4999Z" fill="#35383B"/>
</svg>
