<svg width="24" height="24" viewBox="0 0 24 24" fill="none" xmlns="http://www.w3.org/2000/svg">
<path d="M11.955 17.4C12.27 17.4 12.5364 17.2911 12.7542 17.0733C12.972 16.8555 13.0806 16.5894 13.08 16.275C13.0794 15.9606 12.9708 15.6942 12.7542 15.4758C12.5376 15.2574 12.2712 15.1488 11.955 15.15C11.6388 15.1512 11.3727 15.2601 11.1567 15.4767C10.9407 15.6933 10.8318 15.9594 10.83 16.275C10.8282 16.5906 10.9371 16.857 11.1567 17.0742C11.3763 17.2914 11.6424 17.4 11.955 17.4ZM12 21C10.755 21 9.585 20.7636 8.49 20.2908C7.395 19.818 6.4425 19.1769 5.6325 18.3675C4.8225 17.5581 4.1814 16.6056 3.7092 15.51C3.237 14.4144 3.0006 13.2444 3 12C2.9994 10.7556 3.2358 9.5856 3.7092 8.49C4.1826 7.3944 4.8237 6.4419 5.6325 5.6325C6.4413 4.8231 7.3938 4.182 8.49 3.7092C9.5862 3.2364 10.7562 3 12 3C13.2438 3 14.4138 3.2364 15.51 3.7092C16.6062 4.182 17.5587 4.8231 18.3675 5.6325C19.1763 6.4419 19.8177 7.3944 20.2917 8.49C20.7657 9.5856 21.0018 10.7556 21 12C20.9982 13.2444 20.7618 14.4144 20.2908 15.51C19.8198 16.6056 19.1787 17.5581 18.3675 18.3675C17.5563 19.1769 16.6038 19.8183 15.51 20.2917C14.4162 20.7651 13.2462 21.0012 12 21ZM12 19.2C14.01 19.2 15.7125 18.5025 17.1075 17.1075C18.5025 15.7125 19.2 14.01 19.2 12C19.2 9.99 18.5025 8.2875 17.1075 6.8925C15.7125 5.4975 14.01 4.8 12 4.8C9.99 4.8 8.2875 5.4975 6.8925 6.8925C5.4975 8.2875 4.8 9.99 4.8 12C4.8 14.01 5.4975 15.7125 6.8925 17.1075C8.2875 18.5025 9.99 19.2 12 19.2ZM12.09 8.13C12.465 8.13 12.7914 8.25 13.0692 8.49C13.347 8.73 13.4856 9.03 13.485 9.39C13.485 9.72 13.3839 10.0125 13.1817 10.2675C12.9795 10.5225 12.7506 10.7625 12.495 10.9875C12.15 11.2875 11.8464 11.6175 11.5842 11.9775C11.322 12.3375 11.1906 12.7425 11.19 13.1925C11.19 13.4025 11.2689 13.5789 11.4267 13.7217C11.5845 13.8645 11.7681 13.9356 11.9775 13.935C12.2025 13.935 12.3939 13.86 12.5517 13.71C12.7095 13.56 12.8106 13.3725 12.855 13.1475C12.915 12.8325 13.05 12.5514 13.26 12.3042C13.47 12.057 13.695 11.8206 13.935 11.595C14.28 11.265 14.5764 10.905 14.8242 10.515C15.072 10.125 15.1956 9.69 15.195 9.21C15.195 8.445 14.8839 7.8189 14.2617 7.3317C13.6395 6.8445 12.9156 6.6006 12.09 6.6C11.52 6.6 10.9764 6.72 10.4592 6.96C9.942 7.2 9.5481 7.5675 9.2775 8.0625C9.1725 8.2425 9.1389 8.4339 9.1767 8.6367C9.2145 8.8395 9.3156 8.9931 9.48 9.0975C9.69 9.2175 9.9075 9.255 10.1325 9.21C10.3575 9.165 10.545 9.0375 10.695 8.8275C10.86 8.6025 11.0664 8.43 11.3142 8.31C11.562 8.19 11.8206 8.13 12.09 8.13Z" fill="#95989C"/>
</svg>
