<svg width="25" height="25" viewBox="0 0 25 25" fill="none" xmlns="http://www.w3.org/2000/svg">
<path d="M12.0051 20.5904L12.0051 7.13904L7.4198 11.9014C7.05237 12.283 6.44483 12.2949 6.06314 11.9277C5.68157 11.5602 5.66968 10.9527 6.0369 10.571L12.2731 4.09498C12.4539 3.90717 12.7038 3.80078 12.9645 3.80078C13.2252 3.80078 13.4751 3.90717 13.656 4.09498L19.8921 10.571C20.2593 10.9527 20.2475 11.5602 19.8659 11.9277C19.4842 12.2949 18.8767 12.283 18.5092 11.9014L13.9239 7.13904L13.9239 20.5904C13.9239 21.1203 13.4944 21.5499 12.9645 21.5499C12.4346 21.5499 12.0051 21.1203 12.0051 20.5904Z" fill="white"/>
</svg>
