<svg width="24" height="24" viewBox="0 0 24 24" fill="none" xmlns="http://www.w3.org/2000/svg">
<path d="M14.7707 12.4479C14.7707 13.2422 14.4551 14.004 13.8935 14.5657C13.3318 15.1273 12.57 15.4429 11.7757 15.4429C10.9814 15.4429 10.2196 15.1273 9.65796 14.5657C9.0963 14.004 8.78076 13.2422 8.78076 12.4479V6.458C8.78076 5.66369 9.0963 4.90191 9.65796 4.34025C10.2196 3.77858 10.9814 3.46304 11.7757 3.46304C12.57 3.46304 13.3318 3.77858 13.8935 4.34025C14.4551 4.90191 14.7707 5.66369 14.7707 6.458V12.4479Z" fill="#95989C" stroke="#95989C" stroke-width="0.426025" stroke-linecap="round" stroke-linejoin="round"/>
<path d="M16.8528 12.4485C16.8528 15.2526 14.5796 17.5263 11.7751 17.5263M11.7751 17.5263C8.97053 17.5263 6.69727 15.2526 6.69727 12.4481M11.7751 17.5263V20.0786" stroke="#95989C" stroke-width="1.3" stroke-linecap="round" stroke-linejoin="round"/>
</svg>
