<svg width="24" height="24" viewBox="0 0 24 24" fill="none" xmlns="http://www.w3.org/2000/svg">
<path d="M17.4372 13.0976H12.8538V17.6809C12.8538 17.924 12.7573 18.1572 12.5854 18.3291C12.4134 18.501 12.1803 18.5976 11.9372 18.5976C11.6941 18.5976 11.4609 18.501 11.289 18.3291C11.1171 18.1572 11.0205 17.924 11.0205 17.6809V13.0976H6.43717C6.19406 13.0976 5.9609 13.001 5.78899 12.8291C5.61709 12.6572 5.52051 12.424 5.52051 12.1809C5.52051 11.9378 5.61709 11.7046 5.78899 11.5327C5.9609 11.3608 6.19406 11.2642 6.43717 11.2642H11.0205V6.68089C11.0205 6.43777 11.1171 6.20461 11.289 6.03271C11.4609 5.8608 11.6941 5.76422 11.9372 5.76422C12.1803 5.76422 12.4134 5.8608 12.5854 6.03271C12.7573 6.20461 12.8538 6.43777 12.8538 6.68089V11.2642H17.4372C17.6803 11.2642 17.9134 11.3608 18.0854 11.5327C18.2573 11.7046 18.3538 11.9378 18.3538 12.1809C18.3538 12.424 18.2573 12.6572 18.0854 12.8291C17.9134 13.001 17.6803 13.0976 17.4372 13.0976Z" fill="#35383B"/>
</svg>
