<svg width="25" height="24" viewBox="0 0 25 24" fill="none" xmlns="http://www.w3.org/2000/svg">
<path opacity="0.4" d="M12.5587 2C9.93865 2 7.80865 4.13 7.80865 6.75C7.80865 9.32 9.81866 11.4 12.4387 11.49C12.5187 11.48 12.5987 11.48 12.6587 11.49C12.6787 11.49 12.6887 11.49 12.7087 11.49C12.7187 11.49 12.7187 11.49 12.7287 11.49C15.2887 11.4 17.2987 9.32 17.3087 6.75C17.3087 4.13 15.1787 2 12.5587 2Z" fill="#7B00FE"/>
<path d="M17.6387 14.15C14.8487 12.29 10.2987 12.29 7.48868 14.15C6.21868 15 5.51868 16.15 5.51868 17.38C5.51868 18.61 6.21868 19.75 7.47868 20.59C8.87868 21.53 10.7187 22 12.5587 22C14.3987 22 16.2387 21.53 17.6387 20.59C18.8987 19.74 19.5987 18.6 19.5987 17.36C19.5887 16.13 18.8987 14.99 17.6387 14.15Z" fill="#7B00FE"/>
</svg>
