<svg width="25" height="24" viewBox="0 0 25 24" fill="none" xmlns="http://www.w3.org/2000/svg">
<path opacity="0.4" d="M21.9287 11.39V17.38C21.9287 20.14 19.6887 22.38 16.9287 22.38H8.18866C5.42866 22.38 3.18866 20.14 3.18866 17.38V11.46C3.94866 12.28 5.02866 12.75 6.19866 12.75C7.45866 12.75 8.66866 12.12 9.42866 11.11C10.1087 12.12 11.2687 12.75 12.5587 12.75C13.8387 12.75 14.9787 12.15 15.6687 11.15C16.4387 12.14 17.6287 12.75 18.8687 12.75C20.0787 12.75 21.1787 12.26 21.9287 11.39Z" fill="#7B00FE"/>
<path d="M15.5486 1.25H9.54863L8.80863 8.61C8.74863 9.29 8.84863 9.93 9.09863 10.51C9.67863 11.87 11.0386 12.75 12.5586 12.75C14.0986 12.75 15.4286 11.89 16.0286 10.52C16.2086 10.09 16.3186 9.59 16.3286 9.08V8.89L15.5486 1.25Z" fill="#7B00FE"/>
<path opacity="0.6" d="M22.9187 8.27L22.6287 5.5C22.2087 2.48 20.8387 1.25 17.9087 1.25H14.0687L14.8087 8.75C14.8187 8.85 14.8287 8.96 14.8287 9.15C14.8887 9.67 15.0487 10.15 15.2887 10.58C16.0087 11.9 17.4087 12.75 18.8687 12.75C20.1987 12.75 21.3987 12.16 22.1487 11.12C22.7487 10.32 23.0187 9.31 22.9187 8.27Z" fill="#7B00FE"/>
<path opacity="0.6" d="M7.14867 1.25C4.20867 1.25 2.84867 2.48 2.41867 5.53L2.14867 8.28C2.04867 9.35 2.33867 10.39 2.96867 11.2C3.72867 12.19 4.89867 12.75 6.19867 12.75C7.65867 12.75 9.05867 11.9 9.76867 10.6C10.0287 10.15 10.1987 9.63 10.2487 9.09L11.0287 1.26H7.14867V1.25Z" fill="#7B00FE"/>
<path d="M11.9087 16.66C10.6387 16.79 9.67865 17.87 9.67865 19.15V22.38H15.4286V19.5C15.4387 17.41 14.2087 16.42 11.9087 16.66Z" fill="#7B00FE"/>
</svg>
