<svg width="25" height="24" viewBox="0 0 25 24" fill="none" xmlns="http://www.w3.org/2000/svg">
<path d="M19.2486 11.53C18.6786 11.38 18.0086 11.3 17.2086 11.3C16.0986 11.3 15.6886 11.57 15.1186 12C15.0886 12.02 15.0586 12.05 15.0286 12.08L14.0786 13.09C13.2886 13.94 11.8386 13.94 11.0386 13.09L10.0886 12.09C10.0586 12.05 10.0286 12.02 9.99865 12C9.41865 11.57 9.00865 11.3 7.90865 11.3C7.10865 11.3 6.43865 11.37 5.86865 11.53C3.48865 12.17 3.48865 14.06 3.48865 15.72V16.65C3.48865 19.16 3.48865 22 8.83865 22H16.2786C19.8286 22 21.6286 20.2 21.6286 16.65V15.72C21.6286 14.06 21.6286 12.17 19.2486 11.53Z" fill="#7B00FE"/>
<path opacity="0.4" d="M15.3486 2H9.76863C5.34863 2 5.34863 4.35 5.34863 6.42V12.21C5.34863 12.43 5.44863 12.63 5.61863 12.76C5.78863 12.89 6.01863 12.94 6.22863 12.88C6.67863 12.76 7.23863 12.7 7.90863 12.7C8.57863 12.7 8.71863 12.78 9.11863 13.08L10.0286 14.04C10.6786 14.74 11.6086 15.14 12.5686 15.14C13.5286 15.14 14.4486 14.74 15.1086 14.04L16.0186 13.08C16.4186 12.78 16.5586 12.7 17.2286 12.7C17.8986 12.7 18.4586 12.76 18.9086 12.88C19.1186 12.94 19.3386 12.89 19.5186 12.76C19.6886 12.63 19.7886 12.42 19.7886 12.21V6.42C19.7686 4.35 19.7686 2 15.3486 2Z" fill="#7B00FE"/>
<path d="M14.1087 9.91001H11.0087C10.6187 9.91001 10.3087 9.60001 10.3087 9.21001C10.3087 8.82001 10.6187 8.51001 11.0087 8.51001H14.1087C14.4987 8.51001 14.8087 8.82001 14.8087 9.21001C14.8087 9.59001 14.4887 9.91001 14.1087 9.91001Z" fill="#7B00FE"/>
<path d="M14.8886 7.11997H10.2286C9.83863 7.11997 9.52863 6.80997 9.52863 6.41997C9.52863 6.02997 9.83863 5.71997 10.2286 5.71997H14.8786C15.2686 5.71997 15.5786 6.02997 15.5786 6.41997C15.5786 6.79997 15.2686 7.11997 14.8886 7.11997Z" fill="#7B00FE"/>
</svg>
