<svg width="25" height="24" viewBox="0 0 25 24" fill="none" xmlns="http://www.w3.org/2000/svg">
<path opacity="0.4" d="M20.5986 6.82L14.8386 2.79C13.2686 1.69 10.8586 1.75 9.34865 2.92L4.33864 6.83C3.33864 7.61 2.54865 9.21 2.54865 10.47V17.37C2.54865 19.92 4.61864 22 7.16864 22H17.9486C20.4986 22 22.5686 19.93 22.5686 17.38V10.6C22.5686 9.25 21.6986 7.59 20.5986 6.82Z" fill="#7B00FE"/>
<path d="M12.5587 18.75C12.1487 18.75 11.8087 18.41 11.8087 18V15C11.8087 14.59 12.1487 14.25 12.5587 14.25C12.9687 14.25 13.3087 14.59 13.3087 15V18C13.3087 18.41 12.9687 18.75 12.5587 18.75Z" fill="#7B00FE"/>
</svg>
