<svg width="24" height="24" viewBox="0 0 24 24" fill="none" xmlns="http://www.w3.org/2000/svg">
<path d="M18.2929 4.29298C18.6834 3.90252 19.3165 3.90249 19.707 4.29298C20.0974 4.68352 20.0975 5.31655 19.707 5.70704L13.413 11.999L19.707 18.293C20.0975 18.6835 20.0975 19.3165 19.707 19.707C19.3164 20.0976 18.6834 20.0976 18.2929 19.707L11.9999 13.4141L5.70696 19.707C5.31643 20.0976 4.68342 20.0976 4.29289 19.707C3.90237 19.3165 3.90237 18.6835 4.29289 18.293L10.5849 12L4.29289 5.70704C3.90243 5.31651 3.9024 4.68347 4.29289 4.29298C4.68343 3.90252 5.31646 3.90249 5.70696 4.29298L11.9989 10.586L18.2929 4.29298Z" fill="#35383B"/>
</svg>
