<svg width="24" height="24" viewBox="0 0 24 24" fill="none" xmlns="http://www.w3.org/2000/svg">
<path d="M15.6891 22H8.31202C3.00977 22 3.00977 19.0826 3.00977 16.5V15.5435C3.00977 13.4104 3.00977 11 7.38989 11C8.48722 11 8.89296 11.2774 9.46468 11.7174C9.49235 11.7461 9.52923 11.7652 9.5569 11.8035L10.4975 12.8365C11.2905 13.707 12.729 13.707 13.5221 12.8365L14.4626 11.8035C14.4903 11.7748 14.518 11.7461 14.5548 11.7174C15.1266 11.2678 15.5323 11 16.6296 11C21.0098 11 21.0098 13.4104 21.0098 15.5435V16.5C20.9913 20.1539 19.2116 22 15.6891 22ZM7.38989 12.4348C4.39296 12.4348 4.39296 13.4104 4.39296 15.5435V16.5C4.39296 19.1209 4.39296 20.5652 8.31202 20.5652H15.6891C18.437 20.5652 19.6081 19.3504 19.6081 16.5V15.5435C19.6081 13.4104 19.6081 12.4348 16.6112 12.4348C15.9473 12.4348 15.8089 12.5209 15.4124 12.827L14.518 13.8122C13.854 14.5391 12.9596 14.9409 12.0005 14.9409C11.0415 14.9409 10.1471 14.5391 9.48313 13.8122L8.58866 12.827C8.19214 12.5209 8.05382 12.4348 7.38989 12.4348Z" fill="#35383B"/>
<path d="M18.3323 12C17.962 12 17.6549 11.6748 17.6549 11.2826L17.655 7.29348C17.655 5.16043 17.655 4.18478 14.7195 4.18478H9.30012C6.36464 4.18478 6.36464 5.16043 6.36464 7.29348L6.3646 11.2826C6.3646 11.6748 6.05751 12 5.68718 12C5.31686 12 5.00977 11.6748 5.00977 11.2826L5.0098 7.29348C5.0098 5.16043 5.0098 2.75 9.30012 2.75H14.7195C19.0098 2.75 19.0098 5.16043 19.0098 7.29348L19.0098 11.2826C19.0098 11.6748 18.7027 12 18.3323 12Z" fill="#35383B"/>
<path d="M13.3886 10.75H10.6309C10.2913 10.75 10.0098 10.5233 10.0098 10.25C10.0098 9.97667 10.2913 9.75 10.6309 9.75H13.3886C13.7282 9.75 14.0098 9.97667 14.0098 10.25C14.0098 10.5233 13.7365 10.75 13.3886 10.75Z" fill="#35383B"/>
<path d="M14.3175 7.75H9.70207C9.32361 7.75 9.00977 7.52333 9.00977 7.25C9.00977 6.97667 9.32361 6.75 9.70207 6.75H14.3175C14.6959 6.75 15.0098 6.97667 15.0098 7.25C15.0098 7.52333 14.7052 7.75 14.3175 7.75Z" fill="#35383B"/>
</svg>
