<svg width="24" height="24" viewBox="0 0 24 24" fill="none" xmlns="http://www.w3.org/2000/svg">
<path d="M3.9 11.1C4.44 11.1 4.8 11.46 4.8 12C4.8 14.61 6.15 16.95 8.4 18.21C11.82 20.19 16.23 19.02 18.21 15.6C20.19 12.18 19.02 7.77 15.6 5.79C12.63 4.08 9.03 4.71 6.78 7.05H8.94C9.48 7.05 9.84 7.41 9.84 7.95C9.84 8.49 9.48 8.85 8.94 8.85H4.89C4.35 8.85 3.99 8.49 3.99 7.95V3.9C3.99 3.36 4.35 3 4.89 3C5.43 3 5.79 3.36 5.79 3.9V5.52C7.5 3.9 9.66 3 12 3C16.95 3 21 7.05 21 12C21 16.95 16.95 21 12 21C7.05 21 3 16.95 3 12C3 11.46 3.36 11.1 3.9 11.1Z" fill="#35383B"/>
</svg>
