<svg width="24" height="24" viewBox="0 0 24 24" fill="none" xmlns="http://www.w3.org/2000/svg">
<g clip-path="url(#clip0_138_397)">
<path d="M16.67 20.75H7.09936C4.83479 20.75 3 18.9069 3 16.6424V10.5181C3 9.39412 3.69425 7.98083 4.58685 7.28659L9.04159 3.81536C10.3805 2.77399 12.5211 2.7244 13.9096 3.69965L19.0173 7.27832C20.0008 7.9643 20.7694 9.43544 20.7694 10.6338V16.6506C20.7694 18.9069 18.9346 20.75 16.67 20.75ZM9.80196 4.79061L5.34721 8.26184C4.76041 8.72467 4.23973 9.7743 4.23973 10.5181V16.6424C4.23973 18.221 5.52077 19.5103 7.09936 19.5103H16.67C18.2486 19.5103 19.5297 18.2292 19.5297 16.6506V10.6338C19.5297 9.84042 18.9594 8.7412 18.3065 8.2949L13.1988 4.71622C12.2566 4.05504 10.7028 4.0881 9.80196 4.79061Z" fill="#35383B"/>
<path d="M12.0002 17.4441C11.6614 17.4441 11.3804 17.1631 11.3804 16.8242V14.3447C11.3804 14.0059 11.6614 13.7249 12.0002 13.7249C12.3391 13.7249 12.6201 14.0059 12.6201 14.3447V16.8242C12.6201 17.1631 12.3391 17.4441 12.0002 17.4441Z" fill="#35383B"/>
</g>
<defs>
<clipPath id="clip0_138_397">
<rect width="24" height="24" fill="white"/>
</clipPath>
</defs>
</svg>
