<svg width="41" height="40" viewBox="0 0 41 40" fill="none" xmlns="http://www.w3.org/2000/svg">
<path d="M25.1551 20.7465C25.1551 22.0704 24.6292 23.34 23.6931 24.2761C22.757 25.2122 21.4873 25.7381 20.1635 25.7381C18.8396 25.7381 17.57 25.2122 16.6339 24.2761C15.6978 23.34 15.1719 22.0704 15.1719 20.7465V10.7633C15.1719 9.43947 15.6978 8.16984 16.6339 7.23373C17.57 6.29763 18.8396 5.77173 20.1635 5.77173C21.4873 5.77173 22.757 6.29763 23.6931 7.23373C24.6292 8.16984 25.1551 9.43947 25.1551 10.7633V20.7465Z" fill="white" stroke="white" stroke-width="0.710041" stroke-linecap="round" stroke-linejoin="round"/>
<path d="M28.6252 20.7474C28.6252 25.4209 24.8364 29.2104 20.1622 29.2104M20.1622 29.2104C15.488 29.2104 11.6992 25.4209 11.6992 20.7467M20.1622 29.2104V33.4643" stroke="white" stroke-width="2.16667" stroke-linecap="round" stroke-linejoin="round"/>
</svg>
