<svg width="24" height="24" viewBox="0 0 24 24" fill="none" xmlns="http://www.w3.org/2000/svg">
<path d="M12.3236 12C12.2947 12 12.2754 12 12.2465 12C12.1983 11.9904 12.1309 11.9904 12.0731 12C9.27926 11.9132 7.16943 9.71456 7.16943 7.00482C7.16943 4.24687 9.41413 2 12.1694 2C14.9247 2 17.1694 4.24687 17.1694 7.00482C17.1598 9.71456 15.0403 11.9132 12.3525 12C12.3428 12 12.3332 12 12.3236 12ZM12.1694 3.44648C10.2137 3.44648 8.61452 5.04725 8.61452 7.00482C8.61452 8.93346 10.1174 10.486 12.0346 10.5535C12.0827 10.5439 12.2176 10.5439 12.3428 10.5535C14.2311 10.4667 15.7147 8.91418 15.7243 7.00482C15.7243 5.04725 14.1251 3.44648 12.1694 3.44648Z" fill="#35383B"/>
<path d="M12.1694 22C10.357 22 8.53535 21.555 7.15754 20.665C5.87221 19.8462 5.16943 18.7248 5.16943 17.5056C5.16943 16.2863 5.87221 15.156 7.15754 14.3283C9.93165 12.5572 14.4257 12.5572 17.1813 14.3283C18.4574 15.1471 19.1694 16.2685 19.1694 17.4878C19.1694 18.707 18.4667 19.8373 17.1813 20.665C15.7943 21.555 13.9819 22 12.1694 22ZM7.92505 15.4497C7.03733 16.0193 6.55649 16.7491 6.55649 17.5145C6.55649 18.271 7.04658 19.0007 7.92505 19.5614C10.2276 21.0477 14.1113 21.0477 16.4138 19.5614C17.3015 18.9918 17.7824 18.2621 17.7824 17.4967C17.7824 16.7402 17.2923 16.0104 16.4138 15.4497C14.1113 13.9723 10.2276 13.9723 7.92505 15.4497Z" fill="#35383B"/>
</svg>
