<svg width="16" height="23" viewBox="0 0 16 23" fill="none" xmlns="http://www.w3.org/2000/svg">
<path d="M12.0001 11.9954C12.0001 12.9883 11.6057 13.9405 10.9036 14.6426C10.2015 15.3446 9.24928 15.7391 8.25639 15.7391C7.2635 15.7391 6.31128 15.3446 5.6092 14.6426C4.90712 13.9405 4.5127 12.9883 4.5127 11.9954V4.50798C4.5127 3.51509 4.90712 2.56286 5.6092 1.86078C6.31128 1.15871 7.2635 0.764282 8.25639 0.764282C9.24928 0.764282 10.2015 1.15871 10.9036 1.86078C11.6057 2.56286 12.0001 3.51509 12.0001 4.50798V11.9954Z" fill="#8D58E9" stroke="#8D58E9" stroke-width="0.613099" stroke-linecap="round" stroke-linejoin="round"/>
<path d="M14.6032 11.996C14.6032 15.5011 11.7616 18.3433 8.25593 18.3433M8.25593 18.3433C4.75028 18.3433 1.90869 15.5011 1.90869 11.9955M8.25593 18.3433V21.5336" stroke="#8D58E9" stroke-width="1.87085" stroke-linecap="round" stroke-linejoin="round"/>
</svg>
