<svg width="24" height="24" viewBox="0 0 24 24" fill="none" xmlns="http://www.w3.org/2000/svg">
<circle cx="9.20001" cy="12.0001" r="7.20001" fill="#BD9FF3"/>
<circle cx="14.8001" cy="12.0001" r="7.20001" fill="#7B00FE"/>
<path d="M12.6782 8.80005V15.2001H13.8419V12.8728H15.2964C15.5638 12.8728 15.8286 12.8201 16.0757 12.7178C16.3228 12.6154 16.5472 12.4654 16.7363 12.2763C16.9254 12.0872 17.0754 11.8628 17.1778 11.6157C17.2801 11.3686 17.3328 11.1038 17.3328 10.8364C17.3328 10.569 17.2801 10.3042 17.1778 10.0571C17.0754 9.81007 16.9254 9.58558 16.7363 9.39649C16.5472 9.20739 16.3228 9.05739 16.0757 8.95506C15.8286 8.85272 15.5638 8.80005 15.2964 8.80005H12.6782ZM13.8419 11.7091V9.96369H15.2964C15.411 9.96369 15.5245 9.98626 15.6304 10.0301C15.7363 10.074 15.8325 10.1383 15.9135 10.2193C15.9946 10.3003 16.0588 10.3966 16.1027 10.5024C16.1466 10.6083 16.1691 10.7218 16.1691 10.8364C16.1691 10.951 16.1466 11.0645 16.1027 11.1704C16.0588 11.2763 15.9946 11.3725 15.9135 11.4535C15.8325 11.5346 15.7363 11.5989 15.6304 11.6427C15.5245 11.6866 15.411 11.7091 15.2964 11.7091H13.8419Z" fill="white"/>
</svg>
